# xmcd
#
# Track frame offsets: 
#        150
#        19948
#        40038
#        59569
#        89377
#        122618
#        141169
#        163875
#        184655
#        217086
#        240743
#        258775
#        276918
#
# Disc length: 3951 seconds
#
# Revision: 0
# Processed by: cddbd v1.5.2PL0 Copyright (c) Steve Scherf et al.
# Submitted via: ExactAudioCopy v0.99pb4
#
DISCID=be0f6d0d
DTITLE=Kenny G - Songs From The Road
DYEAR=2011
DGENRE=Instrumental
TTITLE0=Home
TTITLE1=Silhouette
TTITLE2=Sade
TTITLE3=Sentimental
TTITLE4=Havana
TTITLE5=G Bop
TTITLE6=Forever In Love
TTITLE7=Heart And Soul
TTITLE8=Rhythm And Romance
TTITLE9=Saxoloco
TTITLE10=Innocence
TTITLE11=Songbird
TTITLE12=Joy Of Life
EXTD=
EXTT0=
EXTT1=
EXTT2=
EXTT3=
EXTT4=
EXTT5=
EXTT6=
EXTT7=
EXTT8=
EXTT9=
EXTT10=
EXTT11=
EXTT12=
PLAYORDER=
